<?xml version="1.0" encoding="UTF-8"?>
<svg xmlns="http://www.w3.org/2000/svg" xmlns:xlink="http://www.w3.org/1999/xlink" width="810pt" height="1439.999935pt" viewBox="0 0 810 1439.999935" version="1.2">
<defs>
<clipPath id="clip1">
  <path d="M 319.820312 568.988281 L 450.320312 568.988281 L 450.320312 699.488281 L 319.820312 699.488281 Z M 319.820312 568.988281 "/>
</clipPath>
</defs>
<g id="surface1">
<g clip-path="url(#clip1)" clip-rule="nonzero">
<path style=" stroke:none;fill-rule:nonzero;fill:rgb(21.958923%,71.369934%,100%);fill-opacity:1;" d="M 358.96875 673.386719 C 351.757812 673.386719 345.984375 679.226562 345.984375 686.4375 C 345.984375 693.648438 351.757812 699.488281 358.96875 699.488281 C 366.179688 699.488281 372.019531 693.648438 372.019531 686.4375 C 372.019531 679.226562 366.179688 673.386719 358.96875 673.386719 Z M 319.820312 568.988281 L 319.820312 582.039062 L 332.871094 582.039062 L 356.328125 631.53125 L 347.519531 647.515625 C 346.507812 649.410156 345.917969 651.53125 345.917969 653.8125 C 345.917969 661.023438 351.757812 666.863281 358.96875 666.863281 L 437.269531 666.863281 L 437.269531 653.8125 L 361.742188 653.8125 C 360.828125 653.8125 360.113281 653.09375 360.113281 652.183594 C 360.113281 651.886719 360.175781 651.628906 360.308594 651.398438 L 366.148438 640.761719 L 414.757812 640.761719 C 419.652344 640.761719 423.925781 638.054688 426.175781 634.042969 L 449.503906 591.695312 C 450.027344 590.78125 450.320312 589.703125 450.320312 588.5625 C 450.320312 584.941406 447.382812 582.039062 443.792969 582.039062 L 347.324219 582.039062 L 341.125 568.988281 Z M 424.21875 673.386719 C 417.007812 673.386719 411.234375 679.226562 411.234375 686.4375 C 411.234375 693.648438 417.007812 699.488281 424.21875 699.488281 C 431.429688 699.488281 437.269531 693.648438 437.269531 686.4375 C 437.269531 679.226562 431.429688 673.386719 424.21875 673.386719 Z M 424.21875 673.386719 "/>
</g>
</g>
</svg>
